<svg id="Capa_1" data-name="Capa 1" xmlns="http://www.w3.org/2000/svg" width="40" height="40" viewBox="0 0 40 40"><title>avoid</title><path d="M24,44a19.29,19.29,0,0,1-7.8-1.58A19.91,19.91,0,0,1,5.58,31.8a20.1,20.1,0,0,1,0-15.6A20,20,0,0,1,16.2,5.58a20.1,20.1,0,0,1,15.6,0,20.42,20.42,0,0,1,6.35,4.28,20.05,20.05,0,0,1,4.27,6.35A19.29,19.29,0,0,1,44,24a19.29,19.29,0,0,1-1.58,7.8A19.91,19.91,0,0,1,31.8,42.42,19.29,19.29,0,0,1,24,44Zm0-3a16.41,16.41,0,0,0,12-5,16.41,16.41,0,0,0,5-12,16.55,16.55,0,0,0-1-5.85,17.56,17.56,0,0,0-3-5.1L13.05,37a15.9,15.9,0,0,0,5.08,3A16.91,16.91,0,0,0,24,41ZM11.05,35,35,11.05a17.05,17.05,0,0,0-5.1-3A16.55,16.55,0,0,0,24,7,16.41,16.41,0,0,0,12,12,16.41,16.41,0,0,0,7,24a16.19,16.19,0,0,0,1.1,5.88A18.52,18.52,0,0,0,11.05,35Z" transform="translate(-4 -4)"/></svg>