<svg id="Capa_1" data-name="Capa 1" xmlns="http://www.w3.org/2000/svg" width="40" height="40" viewBox="0 0 40 40"><title>info</title><path d="M22.65,34h3V22h-3ZM24,18.3a1.61,1.61,0,0,0,1.17-.45,1.5,1.5,0,0,0,.48-1.15,1.66,1.66,0,0,0-.48-1.2,1.62,1.62,0,0,0-2.34,0,1.66,1.66,0,0,0-.48,1.2,1.5,1.5,0,0,0,.48,1.15A1.61,1.61,0,0,0,24,18.3ZM24,44a19.19,19.19,0,0,1-7.75-1.58,20.14,20.14,0,0,1-6.37-4.29,20.53,20.53,0,0,1-4.31-6.38,20,20,0,0,1,0-15.55A20.16,20.16,0,0,1,9.88,9.85a20.43,20.43,0,0,1,6.37-4.27,20,20,0,0,1,15.55,0,20.42,20.42,0,0,1,6.35,4.28,20.05,20.05,0,0,1,4.27,6.35A19.29,19.29,0,0,1,44,24a19.19,19.19,0,0,1-1.58,7.75,20.42,20.42,0,0,1-4.27,6.38,19.94,19.94,0,0,1-6.35,4.29A19.29,19.29,0,0,1,24,44Zm.05-3a16.32,16.32,0,0,0,12-5A16.5,16.5,0,0,0,41,24a16.34,16.34,0,0,0-5-12A16.41,16.41,0,0,0,24,7,16.4,16.4,0,0,0,12,12,16.36,16.36,0,0,0,7,24a16.39,16.39,0,0,0,5,12A16.45,16.45,0,0,0,24.05,41Z" transform="translate(-4 -4)"/></svg>