<svg id="Capa_1" data-name="Capa 1" xmlns="http://www.w3.org/2000/svg" width="36" height="30" viewBox="0 0 36 30"><title>list</title><path d="M8.55,39a2.51,2.51,0,0,1-1.8-.72A2.33,2.33,0,0,1,6,36.55,2.56,2.56,0,0,1,8.55,34a2.33,2.33,0,0,1,1.73.75,2.51,2.51,0,0,1,.72,1.8A2.48,2.48,0,0,1,8.55,39ZM16,38V35H42v3ZM8.55,26.5a2.48,2.48,0,0,1-1.8-.73,2.46,2.46,0,0,1,0-3.54,2.48,2.48,0,0,1,1.8-.73,2.33,2.33,0,0,1,1.73.75A2.44,2.44,0,0,1,11,24a2.41,2.41,0,0,1-.73,1.75A2.3,2.3,0,0,1,8.55,26.5Zm7.45-1v-3H42v3ZM8.5,14A2.48,2.48,0,0,1,6,11.5,2.48,2.48,0,0,1,8.5,9,2.49,2.49,0,0,1,11,11.5,2.49,2.49,0,0,1,8.5,14ZM16,13V10H42v3Z" transform="translate(-6 -9)"/></svg>