<svg id="Capa_1" data-name="Capa 1" xmlns="http://www.w3.org/2000/svg" width="36" height="36" viewBox="0 0 36 36"><title>picture</title><path d="M9,42a2.88,2.88,0,0,1-2.1-.9A2.88,2.88,0,0,1,6,39V9a2.88,2.88,0,0,1,.9-2.1A2.88,2.88,0,0,1,9,6H39a2.88,2.88,0,0,1,2.1.9A2.88,2.88,0,0,1,42,9V39a3.08,3.08,0,0,1-3,3Zm0-3H39V9H9Zm2.8-4.85H36.25l-7.35-9.8L22.3,32.9l-4.65-6.35ZM9,39v0Zm8-19.5a2.41,2.41,0,0,0,1.77-.73A2.44,2.44,0,0,0,19.5,17a2.41,2.41,0,0,0-.73-1.77A2.44,2.44,0,0,0,17,14.5a2.37,2.37,0,0,0-1.76.73A2.41,2.41,0,0,0,14.5,17a2.37,2.37,0,0,0,.73,1.76A2.41,2.41,0,0,0,17,19.5Z" transform="translate(-6 -6)"/></svg>