<svg id="Capa_1" data-name="Capa 1" xmlns="http://www.w3.org/2000/svg" width="36" height="36" viewBox="0 0 36 36"><title>search</title><path d="M39.8,42,26.65,28.8a10.92,10.92,0,0,1-3.5,2,12.21,12.21,0,0,1-4.25.73A12.45,12.45,0,0,1,9.75,27.8a12.34,12.34,0,0,1-3.75-9,12.34,12.34,0,0,1,3.75-9A12.39,12.39,0,0,1,18.85,6a12.28,12.28,0,0,1,9,3.75,12.39,12.39,0,0,1,3.72,9.05,12.39,12.39,0,0,1-.7,4.15,12.93,12.93,0,0,1-2.1,3.75L42,39.75ZM18.85,28.55a9.38,9.38,0,0,0,6.9-2.87,9.5,9.5,0,0,0,2.85-6.93,9.5,9.5,0,0,0-2.85-6.93A9.38,9.38,0,0,0,18.85,9a9.5,9.5,0,0,0-7,2.87A9.45,9.45,0,0,0,9,18.75a9.41,9.41,0,0,0,2.88,6.92A9.47,9.47,0,0,0,18.85,28.55Z" transform="translate(-6 -5.95)"/></svg>