<svg id="Capa_1" data-name="Capa 1" xmlns="http://www.w3.org/2000/svg" width="40" height="40" viewBox="0 0 40 40"><title>settings</title><path d="M19.4,44l-1-6.3a13.22,13.22,0,0,1-2-1,13.84,13.84,0,0,1-1.85-1.25l-5.9,2.7L4,30l5.4-3.95a5.89,5.89,0,0,1-.13-1c0-.38,0-.72,0-1s0-.64,0-1a5.89,5.89,0,0,1,.13-1L4,18,8.65,9.8l5.9,2.7a13.84,13.84,0,0,1,1.85-1.25,10.44,10.44,0,0,1,2-.9L19.4,4h9.2l1,6.3a14.72,14.72,0,0,1,2,.93,8.32,8.32,0,0,1,1.83,1.27l5.9-2.7L44,18l-5.4,3.85a5.94,5.94,0,0,1,.12,1.08c0,.38,0,.74,0,1.07s0,.68,0,1.05a5.81,5.81,0,0,1-.12,1.05L44,30l-4.65,8.2-5.9-2.7a16.63,16.63,0,0,1-1.83,1.28,8.81,8.81,0,0,1-2,.92l-1,6.3ZM24,30.5A6.49,6.49,0,0,0,30.5,24,6.49,6.49,0,0,0,24,17.5,6.49,6.49,0,0,0,17.5,24,6.49,6.49,0,0,0,24,30.5Zm0-3a3.48,3.48,0,1,1,2.48-1A3.4,3.4,0,0,1,24,27.5ZM21.8,41h4.4l.7-5.6A11.71,11.71,0,0,0,30,34.15a12.79,12.79,0,0,0,2.68-2L38,34.4l2-3.6-4.7-3.45q.2-.86.33-1.68A11.52,11.52,0,0,0,35.75,24a13.3,13.3,0,0,0-.1-1.68,10.36,10.36,0,0,0-.35-1.67L40,17.2l-2-3.6-5.3,2.3a11,11,0,0,0-2.6-2.17,8.38,8.38,0,0,0-3.2-1.13L26.2,7H21.8l-.7,5.6a10.39,10.39,0,0,0-3.17,1.2,11.15,11.15,0,0,0-2.63,2.1L10,13.6,8,17.2l4.7,3.45c-.13.57-.24,1.13-.32,1.68a10.79,10.79,0,0,0,0,3.34c.08.56.19,1.11.32,1.68L8,30.8l2,3.6,5.3-2.3a12.79,12.79,0,0,0,2.68,2A11.71,11.71,0,0,0,21.1,35.4Z" transform="translate(-4 -4)"/></svg>